<svg width="118" height="118" viewBox="0 0 118 118" fill="none" xmlns="http://www.w3.org/2000/svg">
<rect width="118" height="118" rx="10" fill="#F4F4F4"/>
<path d="M21 40.5C19.6193 40.5 18.5 41.6193 18.5 43C18.5 44.3807 19.6193 45.5 21 45.5V40.5ZM96.5 43L71.5 28.5662V57.4338L96.5 43ZM21 45.5H74V40.5H21V45.5Z" fill="#B7B7B7"/>
<path d="M96.5 77.5C97.8807 77.5 99 76.3807 99 75C99 73.6193 97.8807 72.5 96.5 72.5V77.5ZM21 75L46 89.4338V60.5662L21 75ZM96.5 72.5H58.75V77.5H96.5V72.5ZM58.75 72.5H43.5V77.5H58.75V72.5Z" fill="#B7B7B7"/>
</svg>
